<svg width="553" height="899" viewBox="0 0 553 899" fill="none" xmlns="http://www.w3.org/2000/svg">
<path fill-rule="evenodd" clip-rule="evenodd" d="M33.9231 244.838C60.8786 161.32 50.2957 42.3268 132.108 8.73043C211.042 -23.6838 310.563 43.4465 381.132 102.256C440.536 151.761 425.223 210.195 465.974 275C504.425 336.148 545.285 397.83 551.974 467C558.736 536.934 521.221 577.177 490.05 637C448.346 717.04 480.683 838.377 398.587 878.282C315.47 918.684 196.391 895.325 116.976 834.692C41.1351 776.787 34.8706 671.865 11.3775 582.649C-4.34703 522.934 0.00770755 465.475 3.99997 405.657C7.7574 349.358 16.9031 297.572 33.9231 244.838Z" fill="#D9D9D9"/>
</svg>
