<svg width="602" height="913" viewBox="0 0 602 913" fill="none" xmlns="http://www.w3.org/2000/svg">
<path fill-rule="evenodd" clip-rule="evenodd" d="M312.316 22.4486C376.818 30.8148 449.619 28.014 495.192 90.4537C539.27 150.847 519.837 250.936 538.326 332.11C556.393 411.431 603.458 476.24 601.965 559.23C600.158 659.721 584.701 769.661 529.255 836.41C472.214 905.079 387.76 923.259 312.316 907.926C242.405 893.718 193.129 816.87 137.996 756.894C85.9876 700.318 9.81953 658.455 0.679043 568.914C-8.50338 478.963 78.1857 423.844 95.0248 335.951C113.82 237.846 50.9135 113.34 102.113 39.4699C151.382 -31.6138 240.69 13.1584 312.316 22.4486Z" fill="#C4C4C4"/>
</svg>
