<svg width="604" height="913" viewBox="0 0 604 913" fill="none" xmlns="http://www.w3.org/2000/svg">
<path fill-rule="evenodd" clip-rule="evenodd" d="M249.281 3.48325C328.803 -18.1109 399.941 65.4604 463.317 122.969C523.357 177.451 585.949 238.582 601.327 322.937C616.078 403.857 566.067 477.28 542.157 555.46C518.661 632.283 512.203 716.159 462.782 775.943C406.146 844.454 330.864 930.913 249.281 909.747C164.221 887.679 147.693 760.798 97.7829 681.247C67.2471 632.575 29.7047 591.381 13.9807 534.701C-1.5397 478.755 -5.74178 419.456 9.62204 363.457C25.19 306.714 68.1032 269.372 99.8653 221.664C150.005 146.352 167.317 25.7404 249.281 3.48325Z" fill="#C4C4C4"/>
</svg>
