<?xml version="1.0" encoding="utf-8"?>
<!-- Generator: Adobe Illustrator 26.3.1, SVG Export Plug-In . SVG Version: 6.00 Build 0)  -->
<svg version="1.1" id="圖層_1" xmlns="http://www.w3.org/2000/svg" xmlns:xlink="http://www.w3.org/1999/xlink" x="0px" y="0px"
	 viewBox="0 0 100 100" style="enable-background:new 0 0 100 100;" xml:space="preserve">
<path d="M49.6,48C39.9,48,32,40.1,32,30.4s7.9-17.6,17.6-17.6s17.6,7.9,17.6,17.6S59.3,48,49.6,48z M49.6,15.9
	c-8.1,0-14.5,6.6-14.5,14.5s6.6,14.5,14.5,14.5s14.6-6.5,14.6-14.5S57.7,15.9,49.6,15.9z"/>
<path d="M74.9,56.6h-25h-25C9.3,56.6,6,65.5,6,72.8v13.1c0,0.9,0.7,1.6,1.6,1.6h42.3h42.3c0.9,0,1.6-0.7,1.6-1.6V72.8
	C93.8,65.5,90.5,56.6,74.9,56.6z M90.7,84.4H50h-0.2H9.1V72.9c0-8.8,5.1-13.1,15.8-13.1h25h25c10.7,0,15.8,4.3,15.8,13.1V84.4z"/>
</svg>
