<?xml version="1.0" encoding="utf-8"?>
<!-- Generator: Adobe Illustrator 26.2.1, SVG Export Plug-In . SVG Version: 6.00 Build 0)  -->
<svg version="1.1" id="圖層_1" xmlns="http://www.w3.org/2000/svg" xmlns:xlink="http://www.w3.org/1999/xlink" x="0px" y="0px"
	 viewBox="0 0 100 100" style="enable-background:new 0 0 100 100;" xml:space="preserve">
<style type="text/css">
	.st0{fill:none;stroke:#000000;stroke-width:7;stroke-miterlimit:10;}
	.st1{fill:none;stroke:#000000;stroke-width:5;stroke-miterlimit:10;}
</style>
<g id="Layer_2">
	<g id="Layer_2-2">
		<path d="M50,87.2H22.6c-3.4,0-4.3-2.5-5.3-5.1V82L6.4,48.9c-0.7-2.6-0.4-5,0.8-6.7c0.8-1.1,2.3-2.3,5.1-2.3H50v2.9H12.3
			c-1.3,0-2.2,0.4-2.8,1.1c-0.7,0.9-0.8,2.4-0.4,4.1l10.7,32.9c1.1,3,1.5,3.2,2.6,3.2h27.5L50,87.2L50,87.2z"/>
		<path d="M77.4,87.2H50v-2.9h27.5c1.1,0,1.4-0.1,2.6-3.2l10.7-32.9c0.4-1.8,0.4-3.2-0.4-4.1c-0.5-0.7-1.5-1.1-2.8-1.1H50v-2.9h37.6
			c2.8,0,4.3,1.2,5.1,2.3c1.2,1.7,1.6,4.1,0.8,6.7v0.1L82.7,82.1C81.8,84.7,80.8,87.2,77.4,87.2z"/>
		<path d="M66,41.8c-5.4-19.6-9.9-27.2-16.2-27.2s-11,7.6-16.2,27.2L30.6,41c2.9-10.6,5.4-17.3,8.1-21.8c3-5.1,6.6-7.6,11-7.6
			c9.3,0,14.1,11.2,19.2,29.4L66,41.8z"/>
		<path class="st0" d="M75.7,41.5"/>
		<path class="st1" d="M23.7,41.5"/>
	</g>
</g>
</svg>
