<?xml version="1.0" encoding="utf-8"?>
<!-- Generator: Adobe Illustrator 26.3.1, SVG Export Plug-In . SVG Version: 6.00 Build 0)  -->
<svg version="1.1" id="圖層_1" xmlns="http://www.w3.org/2000/svg" xmlns:xlink="http://www.w3.org/1999/xlink" x="0px" y="0px"
	 viewBox="0 0 100 100" style="enable-background:new 0 0 100 100;" xml:space="preserve">
<g>
	<g>
		<path d="M52.3,35.9H40.9c-0.9,0-1.6-0.7-1.6-1.6s0.7-1.6,1.6-1.6h11.4c0.9,0,1.6,0.7,1.6,1.6C53.8,35.2,53.1,35.9,52.3,35.9z"/>
		<circle cx="32.2" cy="34.3" r="2.5"/>
	</g>
	<g>
		<path d="M59.2,67.2H41.7c-1.4,0-2.4-0.7-2.4-1.6c0-0.9,1.1-1.6,2.4-1.6h17.6c1.4,0,2.4,0.7,2.4,1.6C61.5,66.5,60.6,67.2,59.2,67.2
			z"/>
		<circle cx="32.2" cy="65.6" r="2.5"/>
	</g>
	<g>
		<path d="M69,51.7H40.5c-0.7,0-1.4-0.7-1.4-1.6c0-0.9,0.6-1.6,1.4-1.6H69c0.7,0,1.4,0.7,1.4,1.6S69.7,51.7,69,51.7z"/>
		<circle cx="32.2" cy="50" r="2.5"/>
	</g>
</g>
<path d="M22.7,90.2c-4-0.1-7.2-3.4-7.1-7.3l0-65.7c0-1.9,0.7-3.7,2-5.1c1.3-1.4,3.1-2.1,5.1-2.2l42.3,0c1.7,0,3.4,0.8,4.6,2.1
	L83,27.3c1,1.1,1.6,2.7,1.6,4.3V83c-0.1,3.8-3.4,7-7.3,7.2H22.7z M22.7,12.4c-2.6,0.1-4.5,2.2-4.4,4.8l0,65.5
	c-0.1,2.5,1.8,4.7,4.4,4.8h54.7c1.3-0.1,2.4-0.6,3.2-1.5c0.8-0.9,1.2-2.1,1.2-3.3V31.4c0-1-0.4-1.9-1-2.6L67.4,13.6
	c-0.7-0.8-1.5-1.1-2.6-1.1L22.7,12.4L22.7,12.4z"/>
<path d="M72.4,32.2c-4.4,0-7.9-3.5-7.9-7.9V11.8c0-0.8,0.7-1.3,1.3-1.3c0.7,0,1.3,0.6,1.3,1.3v12.5c0,2.9,2.3,5.2,5.2,5.2h10.6
	c0.8,0,1.3,0.7,1.3,1.3c0,0.8-0.6,1.4-1.3,1.4H72.4z"/>
</svg>
