<?xml version="1.0" encoding="UTF-8"?><svg id="_レイヤー_4" xmlns="http://www.w3.org/2000/svg" viewBox="0 0 20 20"><defs><style>.cls-1{stroke-width:0px;}</style></defs><path class="cls-1" d="m10,5.27c1.54,0,1.72,0,2.33.03.56.03.87.12,1.07.2.27.1.46.23.66.43.2.2.33.39.43.66.08.2.17.51.2,1.07.03.61.03.79.03,2.33s0,1.72-.03,2.33c-.03.56-.12.87-.2,1.07-.1.27-.23.46-.43.66s-.39.33-.66.43c-.2.08-.51.17-1.07.2-.61.03-.79.03-2.33.03s-1.72,0-2.33-.03c-.56-.03-.87-.12-1.07-.2-.27-.1-.46-.23-.66-.43-.2-.2-.33-.39-.43-.66-.08-.2-.17-.51-.2-1.07-.03-.61-.03-.79-.03-2.33s0-1.72.03-2.33c.03-.56.12-.87.2-1.07.1-.27.23-.46.43-.66s.39-.33.66-.43c.2-.08.51-.17,1.07-.2.61-.03.79-.03,2.33-.03m0-1.04c-1.57,0-1.76,0-2.38.03-.61.03-1.03.13-1.4.27-.38.15-.7.34-1.02.67-.32.32-.52.64-.67,1.02-.14.37-.24.79-.27,1.4-.03.62-.03.81-.03,2.38s0,1.76.03,2.38c.03.61.13,1.03.27,1.4.15.38.34.7.67,1.02.32.32.64.52,1.02.67.37.14.79.24,1.4.27.62.03.81.03,2.38.03s1.76,0,2.38-.03c.61-.03,1.03-.13,1.4-.27.38-.15.7-.34,1.02-.67.32-.32.52-.64.67-1.02.14-.37.24-.79.27-1.4.03-.62.03-.81.03-2.38s0-1.76-.03-2.38c-.03-.61-.13-1.03-.27-1.4-.15-.38-.34-.7-.67-1.02-.32-.32-.64-.52-1.02-.67-.37-.14-.79-.24-1.4-.27-.62-.03-.81-.03-2.38-.03h0Z"/><path class="cls-1" d="m10,7.04c-1.64,0-2.96,1.33-2.96,2.96s1.33,2.96,2.96,2.96,2.96-1.33,2.96-2.96-1.33-2.96-2.96-2.96Zm0,4.89c-1.06,0-1.92-.86-1.92-1.92s.86-1.92,1.92-1.92,1.92.86,1.92,1.92-.86,1.92-1.92,1.92Z"/><circle class="cls-1" cx="13.08" cy="6.92" r=".69"/></svg>