<svg width="1001" height="1334" viewBox="0 0 1001 1334" fill="none" xmlns="http://www.w3.org/2000/svg">
<path d="M936.384 364.891C894.72 304.194 808.976 270.702 724.494 252.168C731.301 248.374 737.888 244.472 743.982 240.516C820.394 190.712 825.06 102.917 825.06 102.917C825.06 102.917 772.636 90.3987 645.063 150.337C616.903 163.56 595.714 179.385 579.685 196.023C582.759 182.257 584.57 167.517 584.57 151.8C584.57 63.5185 498.661 0.382568 498.661 0.382568C498.661 0.382568 411.71 57.2862 411.71 150.825C411.71 165.782 413.082 179.71 415.442 192.608C399.908 177.272 379.762 162.693 353.577 150.391C226.004 90.4529 173.581 102.972 173.581 102.972C173.581 102.972 178.247 190.766 254.659 240.57C261.026 244.689 267.778 248.699 274.86 252.601C190.927 271.19 106.006 304.627 64.6713 364.945C-32.7102 506.771 4.89204 734.168 22.8972 827.219C42.9883 931.001 185.053 1333.28 500.473 1333.72C815.892 1333.28 957.958 931.001 978.049 827.219C996.109 734.168 1033.71 506.771 936.384 364.891Z" fill="black"/>
</svg>
